<?xml version="1.0" encoding="UTF-8"?>
<!-- Generated by Pixelmator Pro 3.5.11 -->
<svg width="24" height="24" viewBox="0 0 24 24" xmlns="http://www.w3.org/2000/svg">
 <g id="layer1">
  <g id="g14">
   <clipPath id="clipPath1">
    <path d="m-5.8732-3.9457h51.81v67.048h-51.81z"/>
   </clipPath>
   <g id="g16" clip-path="url(#clipPath1)">
    <g id="g22">
     <path id="path24" d="m2.9506 10.806h1.2407c0.19318 0 0.36419 0.057905 0.51242 0.17354 0.14832 0.11589 0.22248 0.22908 0.22248 0.33922 0 0.077969-0.027429 0.1418-0.081948 0.19158-0.054772 0.050032-0.1153 0.074666-0.1815 0.074666-0.085926 0-0.16415-0.039026-0.23475-0.11733-0.070687-0.078053-0.14459-0.11716-0.22171-0.11716h-1.2213c-0.12004 0-0.17989 0.048931-0.17989 0.14705 0 0.068741 0.039195 0.1208 0.11776 0.15636l1.4376 0.64736c0.14628 0.064509 0.26607 0.16838 0.3597 0.31128 0.093545 0.14332 0.14036 0.30205 0.14036 0.47636 0 0.23263-0.08237 0.42946-0.24677 0.59081-0.16466 0.16161-0.35132 0.2422-0.56 0.2422h-1.097c-0.18946 0-0.36529-0.057057-0.52766-0.17185-0.16254-0.11479-0.24356-0.22637-0.24356-0.33431 0-0.071449 0.026244-0.13469 0.07873-0.1898 0.052572-0.055196 0.1208-0.082878 0.20436-0.082878 0.068656 0 0.14214 0.039111 0.22044 0.11733 0.078391 0.078223 0.19149 0.11733 0.33972 0.11733h1.0073c0.079408 0 0.14586-0.030477 0.19954-0.091853 0.053587-0.061121 0.080508-0.13147 0.080508-0.21088 0-0.12241-0.058413-0.21062-0.17498-0.26404l-1.4546-0.6549c-0.13985-0.062561-0.24736-0.1528-0.32262-0.27141-0.075174-0.11835-0.11285-0.23882-0.11285-0.36174 0-0.19378 0.067047-0.36165 0.20148-0.50379 0.13426-0.14205 0.30028-0.21316 0.49795-0.21316" fill="#000"/>
    </g>
    <g id="g26">
     <path id="path28" d="m7.586 11.107c-0.22959-0.20656-0.46595-0.30764-0.70933-0.30341h-0.63678c-0.25854 0-0.4982 0.10497-0.71915 0.31475-0.22078 0.21003-0.33126 0.43352-0.33126 0.67014v1.1464c0 0.23678 0.1131 0.46002 0.33939 0.67005 0.22612 0.20986 0.46324 0.31484 0.71103 0.31484h0.63678c0.24339 0 0.47975-0.10354 0.70933-0.3101 0.22942-0.20664 0.34413-0.43158 0.34413-0.67479v-1.1464c0-0.24754-0.11471-0.47458-0.34413-0.68148m-1.7429 0.48584 0.18362-0.1578c0.06654-0.058074 0.16085-0.087112 0.28343-0.087112h0.56042c0.085842 0 0.16076 0.026922 0.22544 0.080424l0.18988 0.1517c0.066624 0.051555 0.099979 0.13113 0.099979 0.23848v1.0957c0 0.09236-0.033355 0.16449-0.099979 0.21613l-0.16423 0.1451c-0.075005 0.066624-0.15881 0.099979-0.25109 0.099979h-0.62815c-0.081608 0-0.14502-0.019471-0.18997-0.058159l-0.20275-0.17397c-0.071026-0.058074-0.10641-0.13672-0.10641-0.23534v-1.0959c0-0.090159 0.033185-0.16322 0.099809-0.21926" fill="#000"/>
    </g>
    <g id="g30">
     <path id="path32" d="m8.3829 13.651v-2.5735c0-0.075428 0.026666-0.13934 0.080338-0.19192 0.053503-0.052994 0.1186-0.079323 0.19505-0.079323 0.14214 0 0.2317 0.071788 0.26904 0.21503 0.14984-0.14324 0.31695-0.21503 0.50142-0.21503 0.21638 0 0.39407 0.093376 0.53342 0.28021 0.17134-0.18684 0.35996-0.28021 0.56576-0.28021 0.16703 0 0.31221 0.059683 0.43547 0.17879 0.12317 0.11937 0.18912 0.27115 0.19767 0.45604l0.084487 2.2106c0 0.072805-0.027344 0.13638-0.081439 0.19014-0.054435 0.053842-0.11843 0.080339-0.19225 0.080339-0.075852 0-0.14112-0.026497-0.19539-0.080339-0.054265-0.053249-0.082626-0.11666-0.084657-0.18954l-0.065693-2.1186c-0.004487-0.11564-0.040042-0.17372-0.10692-0.17372-0.036825 0-0.074582 0.01617-0.11344 0.048424l-0.32406 0.27098v1.9788c0 0.073059-0.026413 0.13528-0.079408 0.18692-0.052909 0.051641-0.11716 0.077122-0.19268 0.077122-0.073567 0-0.1374-0.02599-0.19132-0.078731-0.054012-0.05291-0.081017-0.1164-0.081017-0.19175v-2.1531c0-0.092445-0.03945-0.13858-0.11826-0.13858-0.03835 0-0.073313 0.014138-0.10523 0.041906l-0.38645 0.32906v1.9215c0 0.072974-0.026074 0.13613-0.077969 0.1898-0.051894 0.053418-0.11454 0.079915-0.18777 0.079915-0.075766 0-0.14095-0.026497-0.19615-0.080508-0.055112-0.053841-0.082539-0.1175-0.082539-0.19065" fill="#000"/>
    </g>
    <g id="g34">
     <path id="path36" d="m11.842 12.21c-0.16085 0.15983-0.24152 0.35225-0.24152 0.57803v0.31551c0 0.22781 0.079576 0.42108 0.23898 0.58006 0.15924 0.1589 0.35336 0.23814 0.58252 0.23814h0.91725l0.45858-0.27479c0 0.076444 0.02709 0.14138 0.081354 0.19488 0.054181 0.053418 0.12072 0.079915 0.1986 0.079915 0.073904 0 0.1379-0.025989 0.19225-0.078899 0.054179-0.05291 0.081439-0.11691 0.081439-0.19225l-0.065609-2.0309c-0.006518-0.22815-0.089227-0.42083-0.24821-0.57795-0.1589-0.15721-0.35073-0.23585-0.57541-0.23585h-1.0345c-0.075938 0-0.14036 0.026497-0.19369 0.079576-0.053333 0.05291-0.079746 0.117-0.079746 0.19251 0 0.073566 0.02709 0.1374 0.0811 0.19124 0.054434 0.054011 0.11826 0.081101 0.19192 0.081101h1.0327c0.075343 0 0.13977 0.026328 0.19268 0.078899 0.052742 0.052741 0.079407 0.11691 0.079407 0.19192l0.012445 0.38425c-0.11031-0.023872-0.19446-0.035555-0.25295-0.035555h-1.0666c-0.22806 0-0.42193 0.079746-0.58303 0.24017m1.3465 1.149h-0.76284c-0.073058 0-0.13689-0.026581-0.19073-0.078899-0.053842-0.052402-0.080593-0.11462-0.080593-0.18624v-0.2963c0-0.073482 0.026413-0.13596 0.078985-0.18718 0.052825-0.051725 0.11716-0.077545 0.19234-0.077545h1.0653c0.07509 0 0.13824 0.025312 0.18971 0.075851 0.05164 0.050455 0.078561 0.11361 0.080762 0.18929l0.016085 0.22383z" fill="#000"/>
    </g>
    <g id="g38">
     <path id="path40" d="m17.431 11.351v2.3006c0 0.07526-0.027174 0.13918-0.081608 0.19192-0.054264 0.052825-0.11818 0.078899-0.19209 0.078899-0.07822 0-0.14434-0.026074-0.19869-0.078899-0.05418-0.052741-0.081438-0.11666-0.081438-0.19192v-2.3006h-0.27547c-0.074667 0-0.13816-0.02709-0.19031-0.0811-0.052572-0.053842-0.078561-0.11776-0.078561-0.19124 0-0.071195 0.023534-0.13426 0.071197-0.18946 0.047575-0.05511 0.11225-0.082708 0.19479-0.082708h0.27835v-0.20952c0-0.27725 0.095831-0.50701 0.28741-0.68969 0.19124-0.18269 0.42963-0.27403 0.7156-0.27403h0.63915c0.075684 0 0.13994 0.02726 0.19302 0.081524 0.05308 0.054265 0.079663 0.12064 0.079663 0.1986 0 0.073989-0.027258 0.13799-0.081101 0.19234-0.05418 0.054265-0.11776 0.081355-0.19124 0.081355h-0.63831c-0.12969 0-0.23695 0.038434-0.32245 0.11479-0.085163 0.076868-0.12792 0.17583-0.12792 0.29714v0.20749h0.54442c0.073312-0.002032 0.13723 0.024042 0.19098 0.077884 0.054011 0.05401 0.081185 0.11877 0.081185 0.19428 0 0.073482-0.026921 0.1374-0.080338 0.19124-0.053758 0.05401-0.11716 0.0811-0.18971 0.0811z" fill="#000"/>
    </g>
    <g id="g42">
     <path id="path44" d="m18.613 13.651v-2.5735c0-0.075428 0.026581-0.13934 0.080423-0.19192 0.053417-0.052994 0.11843-0.079323 0.19513-0.079323 0.14205 0 0.2317 0.071788 0.26887 0.21503 0.14967-0.14324 0.31695-0.21503 0.50134-0.21503 0.21663 0 0.39424 0.093376 0.5335 0.28021 0.17134-0.18684 0.36004-0.28021 0.56576-0.28021 0.1672 0 0.31221 0.059683 0.43564 0.17879 0.12301 0.11937 0.18862 0.27115 0.19767 0.45604l0.084232 2.2106c0 0.072805-0.02726 0.13638-0.081356 0.19014-0.054434 0.053842-0.11843 0.080339-0.19234 0.080339-0.0756 0-0.14095-0.026497-0.19547-0.080339-0.054178-0.053249-0.082453-0.11666-0.084486-0.18954l-0.065779-2.1186c-0.004316-0.11564-0.039871-0.17372-0.10692-0.17372-0.036571 0-0.074581 0.01617-0.11336 0.048424l-0.32415 0.27098v1.9788c0 0.073059-0.026329 0.13528-0.079408 0.18692-0.05291 0.051641-0.11708 0.077122-0.19259 0.077122-0.07365 0-0.13723-0.02599-0.19124-0.078731-0.054181-0.05291-0.080847-0.1164-0.080847-0.19175v-2.1531c0-0.092445-0.039704-0.13858-0.11844-0.13858-0.038433 0-0.073311 0.014138-0.10531 0.041906l-0.38645 0.32906v1.9215c0 0.072974-0.02599 0.13613-0.077969 0.1898-0.051725 0.053418-0.11454 0.079915-0.18785 0.079915-0.075597 0-0.14078-0.026497-0.19598-0.080508-0.055366-0.053841-0.082624-0.1175-0.082624-0.19065" fill="#000"/>
    </g>
   </g>
  </g>
 </g>
</svg>
